<svg width="23" height="23" viewBox="0 0 23 23" fill="none" xmlns="http://www.w3.org/2000/svg">
<circle cx="11.5" cy="11.5" r="11.5" fill="#FF0000" fill-opacity="0.6"/>
<path d="M12.3574 14.2295H10.5205L10.3184 5.20312H12.5684L12.3574 14.2295ZM10.2568 16.9893C10.2568 16.6553 10.3652 16.3799 10.582 16.1631C10.7988 15.9404 11.0947 15.8291 11.4697 15.8291C11.8447 15.8291 12.1406 15.9404 12.3574 16.1631C12.5742 16.3799 12.6826 16.6553 12.6826 16.9893C12.6826 17.3115 12.5771 17.5811 12.3662 17.7979C12.1553 18.0146 11.8564 18.123 11.4697 18.123C11.083 18.123 10.7842 18.0146 10.5732 17.7979C10.3623 17.5811 10.2568 17.3115 10.2568 16.9893Z" fill="white"/>
</svg>
