<svg width="26" height="24" viewBox="0 0 26 24" fill="none" xmlns="http://www.w3.org/2000/svg">
<path d="M22.008 7.5L22.764 6.77C22.9659 6.57507 23.0793 6.31068 23.0793 6.035C23.0793 5.75932 22.9659 5.49494 22.764 5.3C22.5621 5.10507 22.2883 4.99555 22.0028 4.99555C21.7173 4.99555 21.4435 5.10507 21.2417 5.3L20.4857 6L19.7297 5.27C19.5237 5.07507 19.2459 4.96713 18.9575 4.96995C18.6691 4.97276 18.3937 5.08609 18.1918 5.285C17.9899 5.48391 17.8782 5.75212 17.8811 6.03061C17.884 6.3091 18.0014 6.57507 18.2073 6.77L18.9633 7.5L18.2073 8.23C18.0055 8.42494 17.8921 8.68932 17.8921 8.965C17.8921 9.24068 18.0055 9.50507 18.2073 9.7C18.4092 9.89494 18.683 10.0044 18.9685 10.0044C19.254 10.0044 19.5278 9.89494 19.7297 9.7L20.4857 9L21.2417 9.73C21.4477 9.92494 21.7254 10.0329 22.0138 10.0301C22.3022 10.0272 22.5777 9.91391 22.7795 9.715C22.9814 9.51609 23.0932 9.24789 23.0903 8.9694C23.0874 8.6909 22.97 8.42494 22.764 8.23L22.008 7.5ZM11.1652 11C11.9845 11 12.7854 10.7654 13.4666 10.3259C14.1479 9.88635 14.6788 9.26164 14.9923 8.53074C15.3059 7.79983 15.3879 6.99556 15.2281 6.21964C15.0682 5.44372 14.6737 4.73098 14.0944 4.17157C13.515 3.61216 12.7769 3.2312 11.9734 3.07686C11.1698 2.92252 10.3369 3.00173 9.58001 3.30448C8.82308 3.60723 8.17612 4.11992 7.72095 4.77772C7.26577 5.43552 7.02283 6.20888 7.02283 7C7.02283 8.06087 7.45926 9.07828 8.23611 9.82843C9.01296 10.5786 10.0666 11 11.1652 11ZM17.3789 21C17.6535 21 17.9169 20.8946 18.1111 20.7071C18.3054 20.5196 18.4145 20.2652 18.4145 20C18.4145 18.1435 17.6507 16.363 16.2912 15.0503C14.9317 13.7375 13.0879 13 11.1652 13C9.24263 13 7.39876 13.7375 6.03926 15.0503C4.67977 16.363 3.91602 18.1435 3.91602 20C3.91602 20.2652 4.02512 20.5196 4.21934 20.7071C4.41355 20.8946 4.67696 21 4.95162 21H17.3789Z" fill="#ffffff" fill-opacity="0.82"/>
</svg>
