<svg width="41" height="40" viewBox="0 0 41 40" fill="none" xmlns="http://www.w3.org/2000/svg">
<g clip-path="url(#clip0)">
<path d="M33.4889 2.03125H7.59473C3.68268 2.03125 0.5 5.20691 0.5 9.11011V35.585C0.5 36.5228 1.06885 37.3792 1.94989 37.7664C2.26117 37.9034 2.59106 37.9703 2.91821 37.97C3.50446 37.97 4.08215 37.7563 4.52985 37.3489C7.7757 34.4119 11.9767 32.7948 16.3597 32.7948H16.3609L33.4935 32.796C37.3567 32.796 40.5 29.646 40.5 25.7739V9.02679C40.5 5.16937 37.3549 2.03125 33.4889 2.03125V2.03125ZM38.1562 25.7739C38.1562 28.3536 36.0646 30.4523 33.4935 30.4523L16.3609 30.451H16.3597C11.3948 30.451 6.63464 32.2836 2.95483 35.6134C2.94354 35.6235 2.9118 35.6293 2.89319 35.621C2.86725 35.6097 2.84924 35.5884 2.84375 35.5771V9.11011C2.84375 6.49933 4.9751 4.375 7.59473 4.375H33.4886C36.0621 4.375 38.1559 6.46179 38.1559 9.02679V25.7739H38.1562Z" fill="black"/>
<path d="M16.1358 14.4927H19.1775C19.8248 14.4927 20.3494 13.9681 20.3494 13.3208C20.3494 12.6738 19.8248 12.1489 19.1775 12.1489H16.1358C14.7106 12.1489 13.5513 13.3086 13.5513 14.7338V21.0503C13.5513 22.4755 14.7106 23.6348 16.1358 23.6348H19.1775C19.8248 23.6348 20.3494 23.1102 20.3494 22.463C20.3494 21.8157 19.8248 21.2911 19.1775 21.2911H16.1358C16.0031 21.2911 15.895 21.183 15.895 21.0503V19.0639H19.1775C19.8248 19.0639 20.3494 18.5393 20.3494 17.892C20.3494 17.2448 19.8248 16.7202 19.1775 16.7202H15.895V14.7338C15.895 14.6007 16.0031 14.4927 16.1358 14.4927Z" fill="black"/>
<path d="M26.6158 21.2911H24.496C24.2855 21.2911 24.1143 21.1199 24.1143 20.9093V13.3208C24.1143 12.6738 23.5897 12.1489 22.9424 12.1489C22.2951 12.1489 21.7705 12.6738 21.7705 13.3208V20.9093C21.7705 22.4123 22.993 23.6348 24.496 23.6348H26.6158C27.2628 23.6348 27.7877 23.1102 27.7877 22.463C27.7877 21.8157 27.2628 21.2911 26.6158 21.2911Z" fill="black"/>
<path d="M10.9583 12.1489C10.3113 12.1489 9.78638 12.6738 9.78638 13.3208V16.7202H7.67578V13.3208C7.67578 12.6738 7.15088 12.1489 6.50391 12.1489C5.85663 12.1489 5.33203 12.6738 5.33203 13.3208V22.463C5.33203 23.1102 5.85663 23.6348 6.50391 23.6348C7.15088 23.6348 7.67578 23.1102 7.67578 22.463V19.0639H9.78638V22.463C9.78638 23.1102 10.3113 23.6348 10.9583 23.6348C11.6055 23.6348 12.1301 23.1102 12.1301 22.463V13.3208C12.1301 12.6738 11.6055 12.1489 10.9583 12.1489Z" fill="black"/>
<path d="M32.2169 12.1489H30.5034C29.5738 12.1489 28.8179 12.9052 28.8179 13.8344V22.463C28.8179 23.1102 29.3425 23.6348 29.9897 23.6348C30.637 23.6348 31.1616 23.1102 31.1616 22.463V18.9473H32.2169C34.0913 18.9473 35.6163 17.4227 35.6163 15.5483C35.6163 13.6739 34.0913 12.1489 32.2169 12.1489ZM32.2169 16.6036H31.1616V14.4927H32.2169C32.7989 14.4927 33.2725 14.9663 33.2725 15.5483C33.2725 16.1302 32.7989 16.6036 32.2169 16.6036Z" fill="black"/>
</g>
<defs>
<clipPath id="clip0">
<rect width="40" height="40" fill="white" transform="translate(0.5)"/>
</clipPath>
</defs>
</svg>
