<?xml version="1.0" encoding="UTF-8" standalone="no"?>
<svg
   xmlns:dc="http://purl.org/dc/elements/1.1/"
   xmlns:cc="http://creativecommons.org/ns#"
   xmlns:rdf="http://www.w3.org/1999/02/22-rdf-syntax-ns#"
   xmlns:svg="http://www.w3.org/2000/svg"
   xmlns="http://www.w3.org/2000/svg"
   xmlns:sodipodi="http://sodipodi.sourceforge.net/DTD/sodipodi-0.dtd"
   xmlns:inkscape="http://www.inkscape.org/namespaces/inkscape"
   width="61mm"
   height="71mm"
   viewBox="0 0 61 71"
   version="1.1"
   id="svg969"
   inkscape:version="1.0.2-2 (e86c870879, 2021-01-15)"
   sodipodi:docname="cepsem-vert2.svg">
  <defs
     id="defs963" />
  <sodipodi:namedview
     id="base"
     pagecolor="#ffffff"
     bordercolor="#666666"
     borderopacity="1.0"
     inkscape:pageopacity="0.0"
     inkscape:pageshadow="2"
     inkscape:zoom="1.4"
     inkscape:cx="411.64606"
     inkscape:cy="122.11123"
     inkscape:document-units="mm"
     inkscape:current-layer="text110"
     inkscape:document-rotation="0"
     showgrid="false"
     inkscape:window-width="1920"
     inkscape:window-height="1017"
     inkscape:window-x="-8"
     inkscape:window-y="472"
     inkscape:window-maximized="1" />
  <metadata
     id="metadata966">
    <rdf:RDF>
      <cc:Work
         rdf:about="">
        <dc:format>image/svg+xml</dc:format>
        <dc:type
           rdf:resource="http://purl.org/dc/dcmitype/StillImage" />
        <dc:title />
      </cc:Work>
    </rdf:RDF>
  </metadata>
  <g
     inkscape:label="Layer 1"
     inkscape:groupmode="layer"
     id="layer1">
    <path
       class="st0"
       d="m 52.721349,21.989799 c 0.15081,8.337021 -11.596694,7.995708 -11.435304,-0.03969 0.21432,-8.860896 11.218344,-8.760354 11.435304,0.03969 z"
       id="path61"
       style="fill:#d91480;fill-opacity:1;stroke:#d91480;stroke-width:0.264583;stroke-miterlimit:10;stroke-opacity:1" />
    <path
       class="st1"
       d="M 44.659485,30.435299"
       id="path65"
       style="fill:none;stroke:#1d1d1b;stroke-width:0.264583;stroke-miterlimit:10" />
    <path
       class="st2"
       d="m 30.022735,29.014487 c 0.30956,7.38981 -9.80546,6.96383 -9.69169,-0.179917 -0.45243,-7.262813 9.87161,-6.416146 9.69169,0.179917 z"
       id="path67"
       style="fill:#fdc618;fill-opacity:1;stroke:#fdc618;stroke-width:0.264583;stroke-miterlimit:10;stroke-opacity:1" />
    <path
       class="st3"
       d="m 43.804885,31.718527 c 0.17198,5.50863 -7.33425,5.50598 -7.15963,0 -0.29898,-5.696478 7.22048,-5.318124 7.15963,0 z"
       id="path69"
       style="fill:#11aebf;fill-opacity:1;stroke:#11aebf;stroke-width:0.264583;stroke-miterlimit:10;stroke-opacity:1" />
    <path
       class="st0"
       d="m 52.451469,26.223132 c 0,0 8.84502,16.121065 -9.437694,25.286225 0,0 12.186714,-12.17877 5.746754,-22.357287 0,0 2.43152,0.08996 3.69359,-2.701396"
       id="path71"
       style="fill:#d91480;fill-opacity:1;stroke:#d91480;stroke-width:0.264583;stroke-miterlimit:10;stroke-opacity:1" />
    <path
       class="st0"
       d="m 40.606065,20.087445 c 0,0 -0.6641,1.860021 -0.38364,2.667 0,0 -5.47158,-1.352021 -10.60715,0.719667 0.003,0.0026 7.47713,-4.016375 10.99079,-3.386667 z"
       id="path73"
       style="fill:#d91480;fill-opacity:1;stroke:#d91480;stroke-width:0.264583;stroke-miterlimit:10;stroke-opacity:1" />
    <path
       class="st3"
       d="m 44.344635,33.679087 c 0,0 5.222874,10.8294 -4.11957,17.94404 0,0 6.05632,-9.54881 1.95792,-15.35641 0,0 1.98173,-0.71438 2.16165,-2.58763 z"
       id="path75"
       style="fill:#11aebf;fill-opacity:1;stroke:#11aebf;stroke-width:0.264583;stroke-miterlimit:10;stroke-opacity:1" />
    <path
       class="st3"
       d="m 35.877965,30.998862 c 0,0 -4.7281,1.307045 -6.39498,3.468685 0,0 6.12511,-2.11666 6.66486,-1.30704 0,0 -0.58473,-0.67733 -0.26988,-2.161645 z"
       id="path77"
       style="fill:#11aebf;fill-opacity:1;stroke:#11aebf;stroke-width:0.264583;stroke-miterlimit:10;stroke-opacity:1" />
    <path
       class="st2"
       d="m 30.022735,25.143632 c 0,0 5.96636,-1.092729 9.0514,-0.449791 0,0 -7.43215,0.899583 -8.24177,2.616729 0,-0.0026 0.0899,-1.087438 -0.80963,-2.166938 z"
       id="path79"
       style="fill:#fdc618;fill-opacity:1;stroke:#fdc618;stroke-width:0.264583;stroke-miterlimit:10;stroke-opacity:1" />
    <path
       class="st2"
       d="m 26.014295,35.142237 c 0.0423,-0.0159 -0.35983,14.36687 11.16807,15.94379 0,0 -15.13152,0.17992 -15.13152,-16.61848 0,-0.003 1.71185,1.48431 3.96345,0.67469 z"
       id="path81"
       style="fill:#fdc618;fill-opacity:1;stroke:#fdc618;stroke-width:0.264583;stroke-miterlimit:10;stroke-opacity:1" />
    <g
       aria-label="CEPSEM"
       id="text110"
       style="font-style:normal;font-variant:normal;font-weight:600;font-stretch:normal;font-size:14.1111px;line-height:1.25;font-family:Inter;-inkscape-font-specification:'Inter, Semi-Bold';font-variant-ligatures:normal;font-variant-caps:normal;font-variant-numeric:normal;font-variant-east-asian:normal;fill:#11aebf;fill-opacity:1;stroke-width:0.264583"
       transform="translate(3.2127976,-0.47247024)">
      <g
         aria-label="C
E
P
S
E
M"
         id="text100"
         style="font-size:10.5833px;line-height:0.95;font-family:Inter;-inkscape-font-specification:'Inter, Normal';stroke-width:0.0700042">
        <path
           d="M 9.3051363,8.7248436 H 7.8995418 Q 7.8394095,8.3790824 7.6778037,8.112245 7.5161979,7.8416492 7.2756684,7.6537355 7.0351388,7.4658218 6.7269604,7.371865 6.4225402,7.2741499 6.0692624,7.2741499 q -0.6276318,0 -1.1124491,0.315695 -0.4848174,0.3119367 -0.7591714,0.9170188 -0.274354,0.6013239 -0.274354,1.4694852 0,0.8831941 0.274354,1.4882761 0.2781123,0.601324 0.7591714,0.909503 0.4848173,0.30442 1.1086908,0.30442 0.3457612,0 0.6464232,-0.0902 0.3044202,-0.09396 0.5449497,-0.274354 0.2442878,-0.180397 0.4096519,-0.443476 0.1691223,-0.263079 0.2330129,-0.601324 l 1.4055945,0.0075 q -0.078924,0.548708 -0.3420029,1.029767 -0.2593209,0.481059 -0.6802476,0.84937 -0.4209267,0.364552 -0.9846678,0.571257 -0.5637411,0.202947 -1.2515052,0.202947 -1.014734,0 -1.8114881,-0.469784 Q 3.4384706,12.990485 2.9799612,12.103532 2.5214517,11.216579 2.5214517,9.9763489 q 0,-1.2439887 0.4622677,-2.1271831 0.4622677,-0.8869527 1.2590218,-1.3567369 0.7967541,-0.4697843 1.8039716,-0.4697843 0.6426648,0 1.1951311,0.1803972 0.5524663,0.1803971 0.9846678,0.5299166 0.4322015,0.3457612 0.7103138,0.8493699 0.2818705,0.4998505 0.3683108,1.1425153 z"
           style="fill:#d91480;fill-opacity:1;stroke-width:0.0700042"
           id="path879" />
        <path
           d="m 2.716882,23.878956 v -7.696945 h 5.006021 v 1.168823 H 4.1112016 v 2.0896 h 3.3523805 v 1.168824 H 4.1112016 v 2.100875 h 3.6417676 v 1.168823 z"
           style="stroke-width:0.0700042"
           id="path881" />
        <path
           d="m 2.716882,33.933091 v -7.696946 h 2.8863544 q 0.8869527,0 1.4882765,0.330728 0.6050822,0.330729 0.9132606,0.909503 0.3119368,0.575016 0.3119368,1.307879 0,0.74038 -0.3119368,1.315396 -0.3119367,0.575016 -0.9207771,0.905744 -0.6088404,0.32697 -1.4995513,0.32697 H 3.6714836 v -1.146274 h 1.7250478 q 0.5186418,0 0.8493699,-0.180397 0.3307281,-0.180397 0.4885756,-0.496092 0.1616058,-0.315695 0.1616058,-0.725347 0,-0.409652 -0.1616058,-0.721588 Q 6.5766294,27.75073 6.242143,27.577849 5.9114149,27.40121 5.3890148,27.40121 H 4.1112016 v 6.531881 z"
           style="stroke-width:0.0700042"
           id="path883" />
        <path
           d="M 6.899841,38.406188 Q 6.8472251,37.913854 6.4563646,37.6395 6.0692624,37.365146 5.4491472,37.365146 q -0.4359598,0 -0.7478965,0.13154 -0.3119368,0.131539 -0.4773008,0.357036 -0.1653641,0.225496 -0.1691224,0.514883 0,0.24053 0.10899,0.417169 0.1127482,0.176639 0.3044202,0.300662 0.1916719,0.120265 0.4246849,0.202947 0.233013,0.08268 0.4697843,0.139056 l 0.7215886,0.180397 q 0.4359598,0.101473 0.8380951,0.274354 0.4058936,0.17288 0.7253469,0.43596 0.3232116,0.263079 0.5111253,0.635148 0.1879137,0.372069 0.1879137,0.871919 0,0.67649 -0.3457613,1.191373 -0.3457612,0.511126 -0.9997008,0.800513 -0.6501814,0.285629 -1.5747169,0.285629 -0.8982274,0 -1.5596837,-0.278113 Q 3.2092159,43.547507 2.8371467,43.013832 2.4688359,42.480157 2.4387697,41.713469 h 1.37177 q 0.030066,0.402136 0.2480461,0.668973 0.2179799,0.266838 0.5674994,0.398377 0.3532777,0.13154 0.7892375,0.13154 0.4547512,0 0.7967541,-0.135298 Q 6.557838,42.638005 6.7532683,42.393717 6.9486985,42.145671 6.9524568,41.814943 6.9486985,41.514281 6.7758179,41.318851 6.6029373,41.119662 6.2910006,40.988122 5.9828221,40.852825 5.569412,40.747593 L 4.6937341,40.522096 q -0.9508433,-0.244287 -1.5033096,-0.74038 -0.548708,-0.49985 -0.548708,-1.32667 0,-0.680248 0.3683108,-1.191373 0.3720692,-0.511125 1.0109758,-0.792996 0.6389065,-0.285629 1.4469355,-0.285629 0.8193037,0 1.4356606,0.285629 0.6201152,0.281871 0.973393,0.785479 0.3532778,0.499851 0.3645526,1.150032 z"
           style="stroke-width:0.0700042"
           id="path885" />
        <path
           d="m 2.716882,54.04136 v -7.696946 h 5.006021 v 1.168824 H 4.1112016 v 2.0896 h 3.3523805 v 1.168823 H 4.1112016 v 2.100875 h 3.6417676 v 1.168824 z"
           style="stroke-width:0.0700042"
           id="path887" />
        <path
           d="m 2.716882,56.398549 h 1.7062564 l 2.2850306,5.577279 h 0.090199 l 2.2850306,-5.577279 h 1.7062568 v 7.696945 H 9.451709 V 58.807603 H 9.3803018 L 7.2531187,64.072944 H 6.2534178 L 4.1262347,58.796328 h -0.071407 v 5.299166 H 2.716882 Z"
           style="fill:#fdc618;fill-opacity:1;stroke-width:0.0700042"
           id="path889" />
      </g>
    </g>
  </g>
</svg>
